<svg width="115" height="115" viewBox="0 0 115 115" fill="none" xmlns="http://www.w3.org/2000/svg">
<rect width="115" height="115" rx="31" fill="#FFECEF"/>
<g clip-path="url(#clip0_16_23)">
<path d="M42.8 66.04V44.55H68.7L71.465 41.75H40V66.04H42.8Z" fill="#FF5571"/>
<path d="M36.5 38.25H78.5V66.25H82V37.375C82 36.6788 81.7234 36.0111 81.2312 35.5188C80.7389 35.0266 80.0712 34.75 79.375 34.75H35.625C34.9288 34.75 34.2611 35.0266 33.7688 35.5188C33.2766 36.0111 33 36.6788 33 37.375V66.25H36.5V38.25Z" fill="#FF5571"/>
<path d="M27.75 69.75V75.7C27.75 76.9067 28.2294 78.064 29.0827 78.9173C29.936 79.7706 31.0933 80.25 32.3 80.25H82.595C83.8017 80.25 84.959 79.7706 85.8123 78.9173C86.6656 78.064 87.145 76.9067 87.145 75.7V69.75H27.75ZM83.75 75.7C83.75 75.9785 83.6394 76.2455 83.4425 76.4425C83.2455 76.6394 82.9785 76.75 82.7 76.75H32.23C31.9515 76.75 31.6845 76.6394 31.4875 76.4425C31.2906 76.2455 31.18 75.9785 31.18 75.7V72.4275H48.5925C48.8113 72.9437 49.1765 73.3845 49.643 73.6955C50.1095 74.0065 50.6568 74.1741 51.2175 74.1775H63.695C64.2557 74.1741 64.803 74.0065 65.2695 73.6955C65.736 73.3845 66.1012 72.9437 66.32 72.4275H83.75V75.7Z" fill="#FF5571"/>
</g>
<defs>
<clipPath id="clip0_16_23">
<rect width="63" height="63" fill="white" transform="translate(26 26)"/>
</clipPath>
</defs>
</svg>
