<svg width="115" height="115" viewBox="0 0 115 115" fill="none" xmlns="http://www.w3.org/2000/svg">
<rect width="115" height="115" rx="31" fill="#E4FFEE"/>
<path d="M57.095 46.9718H36.8485C35.5061 46.9718 34.2186 47.5051 33.2694 48.4543C32.3201 49.4036 31.7869 50.691 31.7869 52.0334V62.1567C31.7869 63.4991 32.3201 64.7865 33.2694 65.7358C34.2186 66.685 35.5061 67.2183 36.8485 67.2183H39.3793V77.3415C39.3793 78.0127 39.6459 78.6565 40.1206 79.1311C40.5952 79.6057 41.2389 79.8723 41.9101 79.8723H46.9717C47.6429 79.8723 48.2867 79.6057 48.7613 79.1311C49.2359 78.6565 49.5025 78.0127 49.5025 77.3415V67.2183H57.095L69.749 77.3415V36.8486L57.095 46.9718ZM64.6874 66.206L59.6258 62.1567H36.8485V52.0334H59.6258L64.6874 47.9841V66.206ZM81.1377 57.0951C81.1377 61.4227 78.7081 65.3455 74.8106 67.2183V46.9718C78.6828 48.8699 81.1377 52.7927 81.1377 57.0951Z" fill="#479B64"/>
</svg>
